<svg width="60" height="60" fill="none" xmlns="http://www.w3.org/2000/svg"><path d="M9.216 13.937a4.853 4.853 0 1 0 0-9.707 4.853 4.853 0 0 0 0 9.707ZM29.965 26.804v.008c.012 0 .023-.004.035-.004.012 0 .023.004.034.004v-.008a3.355 3.355 0 0 0 3.291-3.351 3.355 3.355 0 0 0-3.29-3.354v-.007c-.012 0-.023.003-.035.003-.012 0-.023-.003-.035-.003v.007a3.354 3.354 0 0 0 0 6.705ZM50.784 13.937a4.854 4.854 0 1 0 .001-9.707 4.854 4.854 0 0 0 0 9.707Z" fill="#000"/><path d="M60 37.462V21.148c0-2.353-2.559-4.911-4.91-4.911h-.68l-3.377 3.377-3.306-3.307a6.586 6.586 0 0 0-4.913 3.518l-3.925 11.48a.95.95 0 0 1-1.489.264l-2.441-2.114a3.95 3.95 0 0 0-2.684-1.052h-4.55c-.995 0-1.953.376-2.684 1.052L22.6 31.569a.949.949 0 0 1-1.49-.263l-3.924-11.48a6.584 6.584 0 0 0-5.863-3.59H4.91C2.559 16.237 0 18.797 0 21.149v16.314c0 1.176.953 2.13 2.129 2.13h1.486l.81 13.912A2.266 2.266 0 0 0 6.69 55.77h4.95a2.266 2.266 0 0 0 2.267-2.266l.809-13.913-.01-9.933a.34.34 0 0 1 .642-.154l3.114 7.664a2.635 2.635 0 0 0 4.132.735l2.98-2.195a.346.346 0 0 1 .367-.063.342.342 0 0 1 .204.311l.011 8.615.56 9.631a1.57 1.57 0 0 0 1.57 1.568h3.426a1.57 1.57 0 0 0 1.57-1.568l.56-9.631.01-8.614c0-.135.08-.257.205-.313a.346.346 0 0 1 .367.064l2.98 2.195a2.634 2.634 0 0 0 4.132-.735l3.114-7.664a.34.34 0 0 1 .642.154l-.004 3.789L42.022 43.6a.791.791 0 0 0 .752 1.032h2.802l.516 8.871a2.266 2.266 0 0 0 2.267 2.266h4.95a2.266 2.266 0 0 0 2.267-2.266l.516-8.87h3.096a.791.791 0 0 0 .752-1.033l-1.334-4.148A2.124 2.124 0 0 0 60 37.462Zm-49.99-18.82v8.742H7.429v-8.741h2.583Z" fill="#000"/></svg>