<svg width="60" height="60" fill="none" xmlns="http://www.w3.org/2000/svg"><path d="M33.492 53.815c8.212-1.361 14.328-5.85 18.13-13.262.04-.064.07-.122.089-.166.035-.083.056-.157.063-.18l.002-.007.001-.003.019-.05.14-.374.572-1.525-1.618.18-.422.047-.027.003-.027.004-.213.036a2.257 2.257 0 0 0-.312.037l-.04.007H49.5a5.282 5.282 0 0 1-5.281-5.28v-6.47a5.282 5.282 0 0 1 5.281-5.28h.375c.1 0 .215.016.38.055.076.017.151.037.242.06l.035.01c.099.026.212.055.332.082.103.025.214.05.31.072l.008.001c.092.02.173.039.243.056l.085.028.358.134 1.727.648-.4-1.801-.094-.422-.002-.008-.001-.007C51.035 11.797 42.62 2.997 30.634 2.703H30c-12.232 0-20.885 8.851-23.14 17.626l-.002.006-.094.375-.404 1.617 1.617-.404.375-.094.037-.009.028-.01.068-.011.011-.002c.062-.01.189-.031.326-.075l.196-.056c.245-.072.401-.118.592-.145a6.75 6.75 0 0 1 .89-.084c2.473 0 4.755 1.901 5.15 4.299.045.355.084.769.084 1.17v6.328c0 2.571-1.682 4.654-4.229 5.21l-.003.002a4.819 4.819 0 0 1-1.049.116c-2.546 0-4.752-1.88-5.197-4.346l-.026-.227a6.195 6.195 0 0 1-.058-.708v-1.875c0-.566-.005-1.126-.01-1.683-.011-1.097-.021-2.18.01-3.257v-.006c.18-7.95 3.46-14.468 9.698-19.394l.003-.003c3.093-2.465 6.733-4.043 10.802-4.766h.004c1.98-.36 4.037-.494 5.988-.319.193.026.39.04.548.05l.015.001c.184.012.321.022.441.039l.02.003.02.002c3.515.36 6.795 1.44 9.712 3.19l.008.005c5.912 3.475 9.782 8.602 11.589 15.2l.001.004c.536 1.92.807 3.986.807 6.153v6.61c0 .809-.189 1.604-.565 2.488-.171.35-.282.731-.345 1.1a1.627 1.627 0 0 0-.052.209l-.003.005-.025.084a24.825 24.825 0 0 1-18.772 17.255 29.49 29.49 0 0 0-.643.118c-.377.072-.75.143-1.219.201a1.598 1.598 0 0 0-.994.492c-.186.2-.3.44-.332.508l-.007.014-.012.025-.011.025c-.604 1.397-1.949 2.35-3.489 2.35h-.209c-1.514-.082-2.871-1.175-3.276-2.721-.481-1.853.477-3.723 2.282-4.386.403-.147.849-.22 1.25-.22 1.4 0 2.685.812 3.267 2.05l.005.01.006.011c.162.325.389.592.686.767.298.175.582.208.77.208h.27l.082-.013ZM49.219 22.25h-.051l-.051.005a4.464 4.464 0 0 0-4.039 4.464v6.515c0 .365.059.717.103.98l.005.029.005.032.008.032c.478 2.033 2.278 3.49 4.348 3.49h.023c.115 0 .348.001.606-.066 2.262-.328 3.933-2.168 3.933-4.45v-6.515c0-.383-.062-.742-.113-.993l-.006-.03-.008-.03c-.53-2.006-2.313-3.463-4.388-3.463h-.375ZM6.098 34.18l.003.017.004.016c.478 2.034 2.278 3.49 4.348 3.49h.426l.051-.005a4.464 4.464 0 0 0 4.039-4.464V26.742c-.06-2.48-1.973-4.492-4.516-4.492-2.538 0-4.469 2.012-4.469 4.516v6.421c0 .383.063.742.114.993Z" fill="#000" stroke="#000" stroke-width="2"/></svg>