<svg width="108" height="108" fill="none" xmlns="http://www.w3.org/2000/svg"><path d="M63 18a9 9 0 0 1-9 9 9 9 0 0 1-9-9 9 9 0 0 1 9-9 9 9 0 0 1 9 9Z" stroke="#1C274C" stroke-width="3.75"/><path d="m54 67.499 2.93-1.675a3.376 3.376 0 0 0-5.86 0L54 67.5Zm-7.446-25.55a3.375 3.375 0 0 0 .71-6.712l-.71 6.712Zm14.182-6.712a3.375 3.375 0 0 0 .71 6.712l-.71-6.712ZM26.148 52.022l9.789 3.263 2.134-6.403-9.789-3.263-2.134 6.403Zm11.278 6.419-5.61 14.587 6.3 2.423 5.61-14.587-6.3-2.423Zm42.291-12.822-9.788 3.263 2.134 6.403 9.79-3.263-2.135-6.403ZM64.275 60.864l5.611 14.587 6.3-2.423-5.61-14.587-6.3 2.422ZM49.84 81.583l7.091-12.41-5.86-3.349-7.092 12.41 5.861 3.349Zm26.613-49.347-8.539 1.83 1.414 6.6 8.54-1.83-1.415-6.6Zm-36.365 1.83-8.54-1.83-1.414 6.6 8.54 1.83 1.414-6.6ZM51.07 69.173l7.09 12.41 5.862-3.35-7.092-12.409-5.86 3.35Zm16.843-35.107c-.48.103-.703.15-.924.196l1.367 6.61c.25-.051.501-.105.971-.206l-1.414-6.6Zm-29.24 6.6c.47.1.72.155.97.206l1.368-6.61c-.221-.045-.445-.093-.924-.196l-1.415 6.6Zm2.48 45.958c3.59 0 6.905-1.924 8.686-5.041l-5.86-3.35a3.254 3.254 0 0 1-2.826 1.64v6.75ZM69.885 75.45c.82 2.132-.754 4.423-3.038 4.423v6.75c7.021 0 11.859-7.043 9.338-13.596l-6.3 2.423Zm.044-26.57c-.999.334-2.062.664-2.925 1.196l3.546 5.745c-.04.024-.007-.005.254-.104.273-.103.642-.227 1.26-.433l-2.135-6.403Zm.645 9.56c-.233-.607-.372-.971-.466-1.248-.09-.263-.088-.308-.082-.262l-6.688.915c.138 1.005.558 2.035.936 3.018l6.3-2.423Zm-3.57-8.364a7.876 7.876 0 0 0-3.666 7.769l6.688-.915c-.06-.44.145-.876.524-1.11l-3.546-5.744Zm15.121-7.798a3.52 3.52 0 0 1-2.407 3.34l2.134 6.403a10.27 10.27 0 0 0 7.023-9.743h-6.75Zm-50.31 30.749c-2.52 6.553 2.317 13.596 9.338 13.596v-6.75c-2.284 0-3.858-2.291-3.038-4.423l-6.3-2.423Zm4.122-17.743c.617.206.986.33 1.26.433.26.099.293.128.253.104l3.546-5.745c-.863-.532-1.926-.862-2.925-1.195l-2.134 6.403Zm7.789 5.579c.378-.983.798-2.013.936-3.018l-6.688-.915c.006-.046.008-.002-.082.262-.094.277-.233.64-.466 1.248l6.3 2.422Zm-6.276-5.042c.38.233.584.668.524 1.11l6.688.914a7.876 7.876 0 0 0-3.666-7.769l-3.546 5.745ZM19.125 42.279a10.27 10.27 0 0 0 7.023 9.743l2.134-6.403a3.52 3.52 0 0 1-2.407-3.34h-6.75Zm6.75 0a3.52 3.52 0 0 1 4.258-3.443l1.415-6.6c-6.394-1.37-12.423 3.504-12.423 10.043h6.75Zm32.286 39.304a10.005 10.005 0 0 0 8.686 5.04v-6.75a3.254 3.254 0 0 1-2.825-1.64l-5.861 3.35Zm30.714-39.304c0-6.539-6.03-11.413-12.423-10.043l1.415 6.6a3.52 3.52 0 0 1 4.258 3.443h6.75Zm-41.611-7.042a64.094 64.094 0 0 1-6.253-.975l-1.367 6.61c2.288.474 4.595.833 6.91 1.077l.71-6.712Zm19.725-.975c-2.07.429-4.157.753-6.253.975l.71 6.712a70.897 70.897 0 0 0 6.91-1.077l-1.367-6.61Z" fill="#1C274C"/><path d="M87.542 67.5C94.667 71.082 99 75.814 99 81c0 3.368-1.827 6.543-5.059 9.337M20.458 67.5C13.333 71.082 9 75.814 9 81c0 11.184 20.147 20.25 45 20.25 8.196 0 15.88-.986 22.5-2.709" stroke="#1C274C" stroke-width="3.75" stroke-linecap="round"/></svg>