<svg width="60" height="60" fill="none" xmlns="http://www.w3.org/2000/svg"><g clip-path="url('#clip0_29_81')"><path d="M45.596 11.177A2 2 0 0 1 47 13.087V18h5.5a2 2 0 0 1 2 2v20a2 2 0 0 1-2 2l-8.05.002h-.248l-.15.198a14.468 14.468 0 0 1-3.384 3.214L27.5 54.394l-13.168-8.977A14.5 14.5 0 0 1 8 33.435V13.088a2 2 0 0 1 1.404-1.908L27.5 5.524l18.096 5.653Zm-17.947-1.42-.149-.046-.15.047-15 4.69-.35.11V33.434a10.5 10.5 0 0 0 4.09 8.319l.006.005.007.004.473.34.01.008 10.632 7.252.282.192.282-.192 9.455-6.45L38.575 42H25a2 2 0 0 1-2-2V20a2 2 0 0 1 2-2h18v-3.443l-.35-.11-15-4.69ZM27.5 29.5H27V38h23.5v-8.5h-23ZM27 25v.5h23.5V22H27v3Z" fill="#000" stroke="#000"/></g><defs><clipPath id="clip0_29_81"><path fill="#fff" d="M0 0h60v60H0z"/></clipPath></defs></svg>