<svg width="55" height="55" fill="none" xmlns="http://www.w3.org/2000/svg"><path d="M52.5 20H30v-7.5A7.5 7.5 0 0 1 37.5 5a2.5 2.5 0 0 0 0-5 12.482 12.482 0 0 0-11.238 7.128 15.82 15.82 0 0 0-20.05-1.77 2.5 2.5 0 0 0-1.034 3.07 15.448 15.448 0 0 0 8.3 8.044c1.653.624 3.407.94 5.175.93 2.166-.04 4.31-.437 6.347-1.175V20H2.5A2.5 2.5 0 0 0 0 22.5v30A2.5 2.5 0 0 0 2.5 55h50a2.5 2.5 0 0 0 2.5-2.5v-30a2.5 2.5 0 0 0-2.5-2.5Zm-37.193-8.18A9.785 9.785 0 0 1 11 8.523a10.83 10.83 0 0 1 12.552 2.952 12.022 12.022 0 0 1-8.245.345ZM50 45.46A7.467 7.467 0 0 0 45.46 50H9.54A7.467 7.467 0 0 0 5 45.46V29.54A7.468 7.468 0 0 0 9.54 25h35.92A7.468 7.468 0 0 0 50 29.54v15.92ZM32.5 37.5a5 5 0 1 1-10 0 5 5 0 0 1 10 0Z" fill="#000"/></svg>